<?xml version="1.0" encoding="UTF-8"?>
<svg width="32" height="32" viewBox="0 0 32 32" fill="none" xmlns="http://www.w3.org/2000/svg">
  <rect width="32" height="32" rx="8" fill="#1a1b1e"/>
  <defs>
    <linearGradient id="paint0_linear" x1="4" y1="8" x2="24" y2="28" gradientUnits="userSpaceOnUse">
      <stop offset="0" stop-color="#3182CE"/>
      <stop offset="1" stop-color="#805AD5"/>
    </linearGradient>
  </defs>
  <path d="M7 7.5C7 7.5 9 8 10.5 11C12 14 12.5 18 12.5 18C12.5 18 13.5 12 15 9.5C16.5 7 18 6 18 6C18 6 19 7.5 20 10C21 12.5 21.5 17 21.5 17C21.5 17 22 15.5 23 13.5C24 11.5 25 10.5 25 10.5L24 22C24 22 23 25 19 25C15 25 16 19 16 19C16 19 15.5 23 12 24.5C8.5 26 7 22 7 22L7 7.5Z" fill="url(#paint0_linear)" stroke="url(#paint0_linear)" stroke-width="0.5"/>
</svg> 